<?xml version="1.0" encoding="utf-8"?>
<!-- Generator: Adobe Illustrator 27.5.0, SVG Export Plug-In . SVG Version: 6.00 Build 0)  -->
<svg version="1.1" id="Layer_1" xmlns="http://www.w3.org/2000/svg" xmlns:xlink="http://www.w3.org/1999/xlink" x="0px" y="0px"
	 viewBox="0 0 4000 4000" style="enable-background:new 0 0 4000 4000;" xml:space="preserve">
<rect x="-0.272" y="0.434" style="fill-rule:evenodd;clip-rule:evenodd;fill:#FFFFFF;" width="4000.272" height="4000.273"/>
<g>
	<defs>
		<path id="SVGID_50_" d="M1045.422,1394.138c210.792,10.891,445.07,117.156,636.018,308.107c1.964,1.961,3.902,3.938,5.845,5.91
			c-83.224,81.261-134.913,194.676-134.913,320.184c0,147.91,71.778,279.04,182.384,360.511
			c-148.042-48.379-296.928-138.748-426.01-267.83c-205.684-205.687-313.134-461.647-308.934-684.371
			c0.229-12.197,4.877-22.603,13.801-30.92C1022.531,1397.415,1033.244,1393.51,1045.422,1394.138"/>
	</defs>
	<clipPath id="SVGID_00000111897833561474706850000004717205739028037542_">
		<use xlink:href="#SVGID_50_"  style="overflow:visible;"/>
	</clipPath>
	<linearGradient id="SVGID_1_" gradientUnits="userSpaceOnUse" x1="1601.67" y1="2295.7097" x2="1000.7125" y2="1267.7224">
		<stop  offset="0" style="stop-color:#FF0000"/>
		<stop  offset="1" style="stop-color:#FFFF00"/>
	</linearGradient>
	
		<rect x="995.612" y="1393.51" style="clip-path:url(#SVGID_00000111897833561474706850000004717205739028037542_);fill:url(#SVGID_1_);" width="739.144" height="995.34"/>
</g>
<defs>
	<filter id="Adobe_OpacityMaskFilter" filterUnits="userSpaceOnUse" x="999.693" y="1394.073" width="735.062" height="994.777">
		<feColorMatrix  type="matrix" values="1 0 0 0 0  0 1 0 0 0  0 0 1 0 0  0 0 0 1 0"/>
	</filter>
</defs>
<mask maskUnits="userSpaceOnUse" x="999.693" y="1394.073" width="735.062" height="994.777" id="SVGID_00000039103386970533170470000006616853945236321696_">
	<g style="filter:url(#Adobe_OpacityMaskFilter);">
		
			<linearGradient id="SVGID_00000045585381063119685010000010473423419256542128_" gradientUnits="userSpaceOnUse" x1="105.2742" y1="1735.4429" x2="1209.8491" y2="3270.1331" gradientTransform="matrix(1 0 0 1 636.8513 -712.4893)">
			<stop  offset="0" style="stop-color:#FFFFFF"/>
			<stop  offset="1" style="stop-color:#000000"/>
		</linearGradient>
		
			<rect x="999.691" y="1394.073" style="fill:url(#SVGID_00000045585381063119685010000010473423419256542128_);" width="735.065" height="994.778"/>
	</g>
</mask>
<path style="mask:url(#SVGID_00000039103386970533170470000006616853945236321696_);fill-rule:evenodd;clip-rule:evenodd;fill:#FFFF00;" d="
	M1045.422,1394.138c45.322,2.341,91.728,9.103,138.558,20.156c-67.363,413.764,161.563,818.832,550.776,974.556
	c-148.042-48.379-296.928-138.748-426.01-267.83c-205.684-205.687-313.134-461.647-308.934-684.371
	c0.229-12.197,4.877-22.603,13.801-30.92C1022.531,1397.415,1033.244,1393.51,1045.422,1394.138"/>
<g>
	<defs>
		<path id="SVGID_55_" d="M1342.025,1188.01c188.039,60.942,374.321,208.019,508.121,418.531
			c-173.511,61.592-297.775,227.17-297.775,421.798c0,56.264,10.416,110.088,29.37,159.69
			c-64.504-65.928-123.396-142.977-173.497-229.757c-145.442-251.909-182.982-526.958-121.279-741.005
			c3.378-11.723,10.562-20.572,21.332-26.298C1319.065,1185.248,1330.423,1184.251,1342.025,1188.01"/>
	</defs>
	<clipPath id="SVGID_00000139984169433658456540000005261813654007924648_">
		<use xlink:href="#SVGID_55_"  style="overflow:visible;"/>
	</clipPath>
	
		<linearGradient id="SVGID_00000010294197272538760350000005330403900526908091_" gradientUnits="userSpaceOnUse" x1="1572.6591" y1="1946.2266" x2="1466.5679" y2="1156.8385">
		<stop  offset="0" style="stop-color:#E60040"/>
		<stop  offset="1" style="stop-color:#FF6CA8"/>
	</linearGradient>
	
		<rect x="1225.263" y="1184.251" style="clip-path:url(#SVGID_00000139984169433658456540000005261813654007924648_);fill:url(#SVGID_00000010294197272538760350000005330403900526908091_);" width="624.883" height="1003.779"/>
</g>
<g>
	<defs>
		<path id="SVGID_58_" d="M1681.867,1065.672c161.957,105.002,301.03,288.906,377.086,519.064
			c-19.335-2.552-39.054-3.891-59.09-3.891c-203.947,0-376.008,136.443-429.932,323.021c-8.585-25.131-16.432-50.819-23.458-77.039
			c-75.283-280.969-40.358-556.361,74.642-747.146c6.296-10.445,15.525-17.138,27.41-19.879
			C1660.405,1057.062,1671.635,1059.039,1681.867,1065.672"/>
	</defs>
	<clipPath id="SVGID_00000008845797309388879100000017986417842791878285_">
		<use xlink:href="#SVGID_58_"  style="overflow:visible;"/>
	</clipPath>
	
		<linearGradient id="SVGID_00000034082166253124356380000009723106577058126263_" gradientUnits="userSpaceOnUse" x1="1729.412" y1="1767.0715" x2="1820.6674" y2="1033.6052">
		<stop  offset="0" style="stop-color:#5B0298"/>
		<stop  offset="1" style="stop-color:#FF6CA8"/>
	</linearGradient>
	
		<rect x="1471.189" y="1057.062" style="clip-path:url(#SVGID_00000008845797309388879100000017986417842791878285_);fill:url(#SVGID_00000034082166253124356380000009723106577058126263_);" width="587.763" height="846.804"/>
</g>
<g>
	<defs>
		<path id="SVGID_61_" d="M2041.797,1035.46c136.285,151.13,225.299,380.391,231.512,638.659
			c-75.623-58.461-170.463-93.274-273.446-93.274c-108.146,0-207.333,38.365-284.693,102.225
			c11.802-269.125,113.599-504.66,264.318-649.804c8.786-8.46,19.43-12.534,31.623-12.105
			C2023.295,1021.589,2033.631,1026.403,2041.797,1035.46"/>
	</defs>
	<clipPath id="SVGID_00000111159761164586991880000000144083783219881610_">
		<use xlink:href="#SVGID_61_"  style="overflow:visible;"/>
	</clipPath>
	
		<linearGradient id="SVGID_00000114061310733481161750000005133858543540522640_" gradientUnits="userSpaceOnUse" x1="1840.4353" y1="1680.626" x2="2140.873" y2="1038.4987">
		<stop  offset="0" style="stop-color:#6A00B8"/>
		<stop  offset="1" style="stop-color:#DB17B9"/>
	</linearGradient>
	
		<rect x="1715.169" y="1020.731" style="clip-path:url(#SVGID_00000111159761164586991880000000144083783219881610_);fill:url(#SVGID_00000114061310733481161750000005133858543540522640_);" width="558.14" height="662.339"/>
</g>
<g>
	<defs>
		<path id="SVGID_64_" d="M2397.282,1099.433c95.967,187.995,121.078,444.019,51.185,704.861
			c-7.347,27.418-15.587,54.252-24.636,80.479c-59.823-176.724-227.038-303.928-423.968-303.928
			c-22.766,0-45.133,1.715-66.984,4.995c85.411-230.744,234.821-410.75,404.784-504.651c10.677-5.901,22.015-7.081,33.678-3.508
			C2383,1081.245,2391.737,1088.571,2397.282,1099.433"/>
	</defs>
	<clipPath id="SVGID_00000085249345866040322060000014366257571437088144_">
		<use xlink:href="#SVGID_64_"  style="overflow:visible;"/>
	</clipPath>
	
		<linearGradient id="SVGID_00000060004258232549074300000005873905265759458480_" gradientUnits="userSpaceOnUse" x1="2065.9365" y1="1652.0022" x2="2540.219" y2="1139.4668">
		<stop  offset="0" style="stop-color:#0049E7"/>
		<stop  offset="1" style="stop-color:#2DDAFF"/>
	</linearGradient>
	
		<rect x="1932.878" y="1074.108" style="clip-path:url(#SVGID_00000085249345866040322060000014366257571437088144_);fill:url(#SVGID_00000060004258232549074300000005873905265759458480_);" width="585.482" height="810.665"/>
</g>
<defs>
	
		<filter id="Adobe_OpacityMaskFilter_00000054957179946041820920000010179413488112116386_" filterUnits="userSpaceOnUse" x="2147.539" y="1235.659" width="340.779" height="649.114">
		<feColorMatrix  type="matrix" values="1 0 0 0 0  0 1 0 0 0  0 0 1 0 0  0 0 0 1 0"/>
	</filter>
</defs>
<mask maskUnits="userSpaceOnUse" x="2147.539" y="1235.659" width="340.779" height="649.114" id="SVGID_00000007409081088867774040000008311377130245284282_">
	<g style="filter:url(#Adobe_OpacityMaskFilter_00000054957179946041820920000010179413488112116386_);">
		
			<linearGradient id="SVGID_00000030477335902640341380000006966580940415574144_" gradientUnits="userSpaceOnUse" x1="1345.0168" y1="2692.7749" x2="1801.548" y2="1865.0533" gradientTransform="matrix(1 0 0 1 774.5837 -772.9744)">
			<stop  offset="0" style="stop-color:#FFFFFF"/>
			<stop  offset="1" style="stop-color:#000000"/>
		</linearGradient>
		
			<rect x="2147.539" y="1235.659" style="fill:url(#SVGID_00000030477335902640341380000006966580940415574144_);" width="340.781" height="649.114"/>
	</g>
</mask>
<path style="mask:url(#SVGID_00000007409081088867774040000008311377130245284282_);fill-rule:evenodd;clip-rule:evenodd;fill:#0131B9;" d="
	M2450.924,1235.659c48.797,167,51.74,366.365-2.457,568.635c-7.347,27.418-15.587,54.252-24.636,80.479
	c-44.104-130.284-146.579-233.641-276.291-278.972C2205.852,1452.784,2312.331,1322.873,2450.924,1235.659"/>
<g>
	<defs>
		<path id="SVGID_69_" d="M2724.095,1253.233c44.04,206.428,2.032,460.224-132.991,694.091
			c-48.329,83.71-104.835,158.364-166.674,222.724c14.859-44.536,22.924-92.177,22.924-141.709
			c0-195.396-125.243-361.508-299.822-422.519c142.439-202.405,334.299-338.702,523.699-385.642
			c11.837-2.933,23.096-1.138,33.436,5.33C2715.007,1231.969,2721.551,1241.307,2724.095,1253.233"/>
	</defs>
	<clipPath id="SVGID_00000119813338122971097350000012182134646723712172_">
		<use xlink:href="#SVGID_69_"  style="overflow:visible;"/>
	</clipPath>
	
		<linearGradient id="SVGID_00000080890142325512079650000009665503365363903167_" gradientUnits="userSpaceOnUse" x1="2226.3003" y1="1814.6295" x2="2942.0991" y2="1440.6034">
		<stop  offset="0" style="stop-color:#0463EF"/>
		<stop  offset="1" style="stop-color:#16EA9E"/>
	</linearGradient>
	
		<rect x="2147.532" y="1217.245" style="clip-path:url(#SVGID_00000119813338122971097350000012182134646723712172_);fill:url(#SVGID_00000080890142325512079650000009665503365363903167_);" width="620.603" height="952.804"/>
</g>
<g>
	<defs>
		<path id="SVGID_72_" d="M2999.966,1486.377c-10.888,210.793-117.152,445.069-308.105,636.021
			c-130.536,130.537-281.325,221.489-431.019,269.463c112.947-81.232,186.511-213.78,186.511-363.523
			c0-124.455-50.819-237.026-132.819-318.138c197.951-179.892,434.927-273.355,642.925-269.433
			c12.194,0.229,22.603,4.876,30.918,13.801C2996.691,1463.485,3000.597,1474.201,2999.966,1486.377"/>
	</defs>
	<clipPath id="SVGID_00000165196361857170128540000009455034598809830802_">
		<use xlink:href="#SVGID_72_"  style="overflow:visible;"/>
	</clipPath>
	
		<linearGradient id="SVGID_00000103232983493216464730000006949626349616120223_" gradientUnits="userSpaceOnUse" x1="2389.2439" y1="2187.6604" x2="3037.2888" y2="1454.1942">
		<stop  offset="0" style="stop-color:#328B09"/>
		<stop  offset="1" style="stop-color:#ECF955"/>
	</linearGradient>
	
		<rect x="2260.843" y="1436.847" style="clip-path:url(#SVGID_00000165196361857170128540000009455034598809830802_);fill:url(#SVGID_00000103232983493216464730000006949626349616120223_);" width="739.754" height="955.015"/>
</g>
<defs>
	
		<filter id="Adobe_OpacityMaskFilter_00000170247554001163998370000015504861366480381056_" filterUnits="userSpaceOnUse" x="2314.535" y="1440.651" width="685.497" height="269.551">
		<feColorMatrix  type="matrix" values="1 0 0 0 0  0 1 0 0 0  0 0 1 0 0  0 0 0 1 0"/>
	</filter>
</defs>
<mask maskUnits="userSpaceOnUse" x="2314.535" y="1440.651" width="685.497" height="269.551" id="SVGID_00000177463812503063984110000013040894887709500090_">
	<g style="filter:url(#Adobe_OpacityMaskFilter_00000170247554001163998370000015504861366480381056_);">
		
			<linearGradient id="SVGID_00000017501689871975694990000009824590257145168543_" gradientUnits="userSpaceOnUse" x1="2818.4873" y1="1964.4299" x2="1295.6351" y2="2609.5566" gradientTransform="matrix(1 0 0 1 794.6218 -793.9216)">
			<stop  offset="0" style="stop-color:#FFFFFF"/>
			<stop  offset="1" style="stop-color:#000000"/>
		</linearGradient>
		
			<rect x="2314.535" y="1440.649" style="fill:url(#SVGID_00000017501689871975694990000009824590257145168543_);" width="685.497" height="269.553"/>
	</g>
</mask>
<path style="mask:url(#SVGID_00000177463812503063984110000013040894887709500090_);fill-rule:evenodd;clip-rule:evenodd;fill:#ECF955;" d="
	M2999.966,1486.377c-3.484,67.483-16.761,137.376-39.447,207.479c-207.772-87.108-442.883-81.156-645.984,16.345
	c197.951-179.892,434.927-273.355,642.925-269.433c12.194,0.229,22.603,4.876,30.918,13.801
	C2996.691,1463.485,3000.597,1474.201,2999.966,1486.377"/>
<defs>
	
		<filter id="Adobe_OpacityMaskFilter_00000046301282598372417460000015859343675453184693_" filterUnits="userSpaceOnUse" x="1183.982" y="1414.285" width="397.72" height="773.708">
		<feColorMatrix  type="matrix" values="1 0 0 0 0  0 1 0 0 0  0 0 1 0 0  0 0 0 1 0"/>
	</filter>
</defs>
<mask maskUnits="userSpaceOnUse" x="1183.982" y="1414.285" width="397.72" height="773.708" id="SVGID_00000026845526144710252050000016572432118847435925_">
	<g style="filter:url(#Adobe_OpacityMaskFilter_00000046301282598372417460000015859343675453184693_);">
		
			<linearGradient id="SVGID_00000077319905480134816040000001707288228187176864_" gradientUnits="userSpaceOnUse" x1="1324.4489" y1="3302.2827" x2="364.2191" y2="2079.8679" gradientTransform="matrix(1 0 0 1 658.9647 -736.5906)">
			<stop  offset="0" style="stop-color:#FFFFFF"/>
			<stop  offset="1" style="stop-color:#000000"/>
		</linearGradient>
		
			<rect x="1183.982" y="1414.285" style="fill:url(#SVGID_00000077319905480134816040000001707288228187176864_);" width="397.72" height="773.708"/>
	</g>
</mask>
<path style="mask:url(#SVGID_00000026845526144710252050000016572432118847435925_);fill-rule:evenodd;clip-rule:evenodd;fill:#C40015;" d="
	M1183.982,1414.285c27.12,299.752,169.746,577.209,397.721,773.708c-64.488-65.922-123.366-142.957-173.459-229.719
	c-99.562-172.446-148.56-355.737-149.772-522.879C1233.589,1427.167,1208.725,1420.124,1183.982,1414.285"/>
<defs>
	
		<filter id="Adobe_OpacityMaskFilter_00000171681597942316436320000000020149464431329682_" filterUnits="userSpaceOnUse" x="1447.987" y="1243.764" width="121.938" height="660.098">
		<feColorMatrix  type="matrix" values="1 0 0 0 0  0 1 0 0 0  0 0 1 0 0  0 0 0 1 0"/>
	</filter>
</defs>
<mask maskUnits="userSpaceOnUse" x="1447.987" y="1243.764" width="121.938" height="660.098" id="SVGID_00000139277827333079030000000010029821488738449829_">
	<g style="filter:url(#Adobe_OpacityMaskFilter_00000171681597942316436320000000020149464431329682_);">
		
			<linearGradient id="SVGID_00000080177956453316492410000013774981450957384614_" gradientUnits="userSpaceOnUse" x1="990.6412" y1="2917.2649" x2="690.2026" y2="1918.6943" gradientTransform="matrix(1 0 0 1 690.643 -770.684)">
			<stop  offset="0" style="stop-color:#FFFFFF"/>
			<stop  offset="1" style="stop-color:#000000"/>
		</linearGradient>
		
			<rect x="1447.986" y="1243.765" style="fill:url(#SVGID_00000080177956453316492410000013774981450957384614_);" width="121.941" height="660.097"/>
	</g>
</mask>
<path style="mask:url(#SVGID_00000139277827333079030000000010029821488738449829_);fill-rule:evenodd;clip-rule:evenodd;fill:#BA1C58;" d="
	M1506.985,1558.398c-2.556-97.093,7.964-190.13,30.149-275.395c-21.641-14.217-43.565-27.309-65.681-39.24
	c-21.391,92.333-28.036,186.592-20.432,279.457c10.896,132.986,51.016,263.118,118.898,380.641c0.003-0.007,0.005-0.014,0.003-0.026
	c-8.582-25.119-16.425-50.798-23.449-77.009C1522.1,1735.873,1509.28,1645.501,1506.985,1558.398 M1569.914,1903.861
	c0.003-0.007,0.005-0.016,0.008-0.026C1569.927,1903.847,1569.927,1903.857,1569.914,1903.861z"/>
<defs>
	
		<filter id="Adobe_OpacityMaskFilter_00000145045758781520354640000012441851594906480049_" filterUnits="userSpaceOnUse" x="1710.502" y="1153.782" width="135.245" height="529.288">
		<feColorMatrix  type="matrix" values="1 0 0 0 0  0 1 0 0 0  0 0 1 0 0  0 0 0 1 0"/>
	</filter>
</defs>
<mask maskUnits="userSpaceOnUse" x="1710.502" y="1153.782" width="135.245" height="529.288" id="SVGID_00000091725760549934249870000005979496524524615355_">
	<g style="filter:url(#Adobe_OpacityMaskFilter_00000145045758781520354640000012441851594906480049_);">
		
			<linearGradient id="SVGID_00000039820643509582260790000013504570633731189669_" gradientUnits="userSpaceOnUse" x1="1050.7213" y1="2815.4246" x2="1059.5551" y2="1808.0211" gradientTransform="matrix(1 0 0 1 722.1427 -797.1772)">
			<stop  offset="0" style="stop-color:#FFFFFF"/>
			<stop  offset="1" style="stop-color:#000000"/>
		</linearGradient>
		
			<rect x="1710.501" y="1153.782" style="fill:url(#SVGID_00000039820643509582260790000013504570633731189669_);" width="135.245" height="529.288"/>
	</g>
</mask>
<path style="mask:url(#SVGID_00000091725760549934249870000005979496524524615355_);fill-rule:evenodd;clip-rule:evenodd;fill:#5B0298;" d="
	M1719.454,1437.511c-10.238,81.178-11.733,163.504-4.285,245.559c3.305-75.357,13.667-148.083,30.182-216.927
	c22.657-94.45,56.897-181.593,100.396-258.212c-16.976-19.055-34.498-37.122-52.494-54.15
	C1756.41,1245.104,1731.69,1340.486,1719.454,1437.511"/>
<defs>
	
		<filter id="Adobe_OpacityMaskFilter_00000181799837128794433110000017905690983138229152_" filterUnits="userSpaceOnUse" x="1932.878" y="1149.17" width="230.396" height="436.67">
		<feColorMatrix  type="matrix" values="1 0 0 0 0  0 1 0 0 0  0 0 1 0 0  0 0 0 1 0"/>
	</filter>
</defs>
<mask maskUnits="userSpaceOnUse" x="1932.878" y="1149.17" width="230.396" height="436.67" id="SVGID_00000103969342741630511760000015226057400763131574_">
	<g style="filter:url(#Adobe_OpacityMaskFilter_00000181799837128794433110000017905690983138229152_);">
		
			<linearGradient id="SVGID_00000074403679845003937520000016107228472975461295_" gradientUnits="userSpaceOnUse" x1="1140.0852" y1="2753.2" x2="1399.3539" y2="1813.5516" gradientTransform="matrix(1 0 0 1 748.8261 -808.844)">
			<stop  offset="0" style="stop-color:#FFFFFF"/>
			<stop  offset="1" style="stop-color:#000000"/>
		</linearGradient>
		
			<rect x="1932.878" y="1149.171" style="fill:url(#SVGID_00000074403679845003937520000016107228472975461295_);" width="230.396" height="436.669"/>
	</g>
</mask>
<path style="mask:url(#SVGID_00000103969342741630511760000015226057400763131574_);fill-rule:evenodd;clip-rule:evenodd;fill:#5B0298;" d="
	M2126.446,1149.17c-61.785,76.779-110.684,162.587-145.201,254.049c-22.206,58.833-38.459,120.006-48.366,182.621
	c19.144-51.715,41.502-100.885,66.585-147.108c46.333-85.371,101.965-160.69,163.811-223.444
	C2151.768,1192.409,2139.471,1170.344,2126.446,1149.17"/>
<defs>
	
		<filter id="Adobe_OpacityMaskFilter_00000010269346401279843530000004574699680842983315_" filterUnits="userSpaceOnUse" x="2314.535" y="1392.836" width="426.35" height="317.365">
		<feColorMatrix  type="matrix" values="1 0 0 0 0  0 1 0 0 0  0 0 1 0 0  0 0 0 1 0"/>
	</filter>
</defs>
<mask maskUnits="userSpaceOnUse" x="2314.535" y="1392.836" width="426.35" height="317.365" id="SVGID_00000111909632842308355870000000219216121403007899_">
	<g style="filter:url(#Adobe_OpacityMaskFilter_00000010269346401279843530000004574699680842983315_);">
		
			<linearGradient id="SVGID_00000158723136057477613600000015164177353868395186_" gradientUnits="userSpaceOnUse" x1="1270.2258" y1="2691.2515" x2="2027.1959" y2="2125.7112" gradientTransform="matrix(1 0 0 1 794.6218 -793.9216)">
			<stop  offset="0" style="stop-color:#FFFFFF"/>
			<stop  offset="1" style="stop-color:#000000"/>
		</linearGradient>
		
			<rect x="2314.535" y="1392.837" style="fill:url(#SVGID_00000158723136057477613600000015164177353868395186_);" width="426.353" height="317.365"/>
	</g>
</mask>
<path style="mask:url(#SVGID_00000111909632842308355870000000219216121403007899_);fill-rule:evenodd;clip-rule:evenodd;fill:#0049E7;" d="
	M2740.517,1392.836c-91.582,32.147-176.748,78.847-252.447,137.82c-65.617,51.117-124.121,111.457-173.534,179.545
	c54.599-49.617,112.165-92.657,171.271-128.896c82.808-50.767,168.645-88.175,253.581-111.598
	C2740.885,1443.729,2741.256,1418.076,2740.517,1392.836"/>
<defs>
	
		<filter id="Adobe_OpacityMaskFilter_00000075153396390868687240000008390697578366531486_" filterUnits="userSpaceOnUse" x="1258.449" y="1185.78" width="323.254" height="1002.213">
		<feColorMatrix  type="matrix" values="1 0 0 0 0  0 1 0 0 0  0 0 1 0 0  0 0 0 1 0"/>
	</filter>
</defs>
<mask maskUnits="userSpaceOnUse" x="1258.449" y="1185.78" width="323.254" height="1002.213" id="SVGID_00000024694842135411964190000012524124667923509396_">
	<g style="filter:url(#Adobe_OpacityMaskFilter_00000075153396390868687240000008390697578366531486_);">
		
			<linearGradient id="SVGID_00000155843275798047473710000016598337369259301001_" gradientUnits="userSpaceOnUse" x1="551.6398" y1="1571.2911" x2="881.58" y2="2973.3855" gradientTransform="matrix(1 0 0 1 667.9001 -736.5906)">
			<stop  offset="0" style="stop-color:#FFFFFF"/>
			<stop  offset="1" style="stop-color:#000000"/>
		</linearGradient>
		
			<rect x="1258.449" y="1185.78" style="fill:url(#SVGID_00000155843275798047473710000016598337369259301001_);" width="323.255" height="1002.213"/>
	</g>
</mask>
<path style="mask:url(#SVGID_00000024694842135411964190000012524124667923509396_);fill-rule:evenodd;clip-rule:evenodd;fill:#FF8CC8;" d="
	M1389.659,1489.851c14.342-84.315,41.495-167.312,81.794-246.088c-42.631-22.995-85.985-41.675-129.429-55.754
	c-11.602-3.758-22.96-2.761-33.728,2.96c-10.77,5.726-17.954,14.575-21.332,26.298c-19.463,67.519-29.053,141.106-28.493,218.127
	c1.212,167.142,50.21,350.433,149.772,522.879c50.093,86.763,108.971,163.798,173.459,229.719
	C1414.719,1991.893,1347.916,1735.285,1389.659,1489.851"/>
<defs>
	
		<filter id="Adobe_OpacityMaskFilter_00000080911548529933435900000010570260028801681555_" filterUnits="userSpaceOnUse" x="1506.609" y="1058.607" width="286.643" height="845.229">
		<feColorMatrix  type="matrix" values="1 0 0 0 0  0 1 0 0 0  0 0 1 0 0  0 0 0 1 0"/>
	</filter>
</defs>
<mask maskUnits="userSpaceOnUse" x="1506.609" y="1058.607" width="286.643" height="845.229" id="SVGID_00000131349505492395351360000017904220181986213269_">
	<g style="filter:url(#Adobe_OpacityMaskFilter_00000080911548529933435900000010570260028801681555_);">
		
			<linearGradient id="SVGID_00000181081091814458186800000012166301839261938367_" gradientUnits="userSpaceOnUse" x1="1211.2969" y1="1400.3431" x2="781.1844" y2="2814.271" gradientTransform="matrix(1 0 0 1 697.6772 -770.6871)">
			<stop  offset="0" style="stop-color:#FFFFFF"/>
			<stop  offset="1" style="stop-color:#000000"/>
		</linearGradient>
		
			<rect x="1506.608" y="1058.608" style="fill:url(#SVGID_00000181081091814458186800000012166301839261938367_);" width="286.645" height="845.228"/>
	</g>
</mask>
<path style="mask:url(#SVGID_00000131349505492395351360000017904220181986213269_);fill-rule:evenodd;clip-rule:evenodd;fill:#FF6CA8;" d="
	M1537.134,1283.003c-22.185,85.266-32.705,178.302-30.149,275.395c2.295,87.103,15.114,177.475,39.487,268.429
	c7.024,26.21,14.867,51.889,23.449,77.009c0.329-1.137,0.662-2.269,1-3.4c0.005-0.016,0.009-0.03,0.014-0.032
	c-10.592-96.833-6.952-193.733,10.068-287.85c14.836-82.043,39.842-161.968,74.455-237.89
	c35.839-78.617,81.981-152.942,137.794-220.881c-35.464-33.56-72.775-63.078-111.386-88.11c-10.231-6.633-21.461-8.611-33.342-5.87
	c-11.885,2.74-21.115,9.433-27.41,19.879C1584.838,1139.863,1556.529,1208.466,1537.134,1283.003"/>
<defs>
	
		<filter id="Adobe_OpacityMaskFilter_00000000925285662214758180000014712413032614433202_" filterUnits="userSpaceOnUse" x="1715.169" y="1021.13" width="411.276" height="661.94">
		<feColorMatrix  type="matrix" values="1 0 0 0 0  0 1 0 0 0  0 0 1 0 0  0 0 0 1 0"/>
	</filter>
</defs>
<mask maskUnits="userSpaceOnUse" x="1715.169" y="1021.13" width="411.276" height="661.94" id="SVGID_00000080926642463659200500000001863105588420868529_">
	<g style="filter:url(#Adobe_OpacityMaskFilter_00000000925285662214758180000014712413032614433202_);">
		
			<linearGradient id="SVGID_00000155830430045516629610000001452382452441317285_" gradientUnits="userSpaceOnUse" x1="1524.7439" y1="1327.4995" x2="965.1204" y2="2735.4304" gradientTransform="matrix(1 0 0 1 722.7028 -797.1772)">
			<stop  offset="0" style="stop-color:#FFFFFF"/>
			<stop  offset="1" style="stop-color:#000000"/>
		</linearGradient>
		
			<rect x="1715.169" y="1021.128" style="fill:url(#SVGID_00000155830430045516629610000001452382452441317285_);" width="411.276" height="661.942"/>
	</g>
</mask>
<path style="mask:url(#SVGID_00000080926642463659200500000001863105588420868529_);fill-rule:evenodd;clip-rule:evenodd;fill:#FF00D5;" d="
	M1845.747,1207.932c-43.499,76.619-77.739,163.762-100.396,258.212c-16.515,68.844-26.877,141.57-30.182,216.927
	c11.76-63.916,31.741-125.211,58.964-182.608c35.712-75.294,83.886-143.885,142.307-202.899
	c59.995-60.604,130.797-111.107,210.005-148.393c-25.535-41.509-53.888-79.6-84.649-113.71c-8.166-9.057-18.502-13.872-30.687-14.3
	c-12.193-0.429-22.837,3.645-31.623,12.105C1928.871,1082.01,1883.772,1140.949,1845.747,1207.932"/>
<defs>
	
		<filter id="Adobe_OpacityMaskFilter_00000142137809841238139710000012174946450666564028_" filterUnits="userSpaceOnUse" x="1932.878" y="1075.664" width="518.062" height="510.175">
		<feColorMatrix  type="matrix" values="1 0 0 0 0  0 1 0 0 0  0 0 1 0 0  0 0 0 1 0"/>
	</filter>
</defs>
<mask maskUnits="userSpaceOnUse" x="1932.878" y="1075.664" width="518.062" height="510.175" id="SVGID_00000025436680172833272400000013469324998042463645_">
	<g style="filter:url(#Adobe_OpacityMaskFilter_00000142137809841238139710000012174946450666564028_);">
		
			<linearGradient id="SVGID_00000163073805463773465000000011583429393144445874_" gradientUnits="userSpaceOnUse" x1="2009.3721" y1="1412.0581" x2="1099.1427" y2="2581.4719" gradientTransform="matrix(1 0 0 1 748.8261 -808.844)">
			<stop  offset="0" style="stop-color:#FFFFFF"/>
			<stop  offset="1" style="stop-color:#000000"/>
		</linearGradient>
		
			<rect x="1932.878" y="1075.663" style="fill:url(#SVGID_00000163073805463773465000000011583429393144445874_);" width="518.062" height="510.176"/>
	</g>
</mask>
<path style="mask:url(#SVGID_00000025436680172833272400000013469324998042463645_);fill-rule:evenodd;clip-rule:evenodd;fill:#66E5FB;" d="
	M2337.663,1081.188c-61.509,33.983-120.322,79.241-174.388,134.1c-61.847,62.753-117.478,138.073-163.811,223.444
	c-25.083,46.223-47.441,95.393-66.585,147.108c23.708-41.113,51.221-79.371,81.979-114.406
	c54.842-62.461,120.008-114.657,192.344-154.46c74.747-41.128,157.149-69.019,243.739-81.32
	c-14.132-48.362-32.107-94.006-53.659-136.221c-5.545-10.862-14.281-18.188-25.941-21.753
	C2359.677,1074.108,2348.34,1075.287,2337.663,1081.188"/>
<defs>
	
		<filter id="Adobe_OpacityMaskFilter_00000090975550518948614820000017591178184556895659_" filterUnits="userSpaceOnUse" x="2147.532" y="1218.812" width="592.984" height="387.009">
		<feColorMatrix  type="matrix" values="1 0 0 0 0  0 1 0 0 0  0 0 1 0 0  0 0 0 1 0"/>
	</filter>
</defs>
<mask maskUnits="userSpaceOnUse" x="2147.532" y="1218.812" width="592.984" height="387.009" id="SVGID_00000178173688566967516100000000377216102303630523_">
	<g style="filter:url(#Adobe_OpacityMaskFilter_00000090975550518948614820000017591178184556895659_);">
		
			<linearGradient id="SVGID_00000029763739852588460240000006426093666447177910_" gradientUnits="userSpaceOnUse" x1="2657.7388" y1="1707.04" x2="1167.3041" y2="2478.76" gradientTransform="matrix(1 0 0 1 774.5828 -806.4465)">
			<stop  offset="0" style="stop-color:#FFFFFF"/>
			<stop  offset="1" style="stop-color:#000000"/>
		</linearGradient>
		
			<rect x="2147.532" y="1218.811" style="fill:url(#SVGID_00000029763739852588460240000006426093666447177910_);" width="592.985" height="387.01"/>
	</g>
</mask>
<path style="mask:url(#SVGID_00000178173688566967516100000000377216102303630523_);fill-rule:evenodd;clip-rule:evenodd;fill:#16EA9E;" d="
	M2671.231,1220.178c-68.211,16.905-136.741,45.4-203.166,84.398c-75.979,44.608-149.202,102.957-216.048,173.422
	c-36.986,38.988-72.019,81.688-104.485,127.823c34.436-33.732,71.721-63.803,111.256-90.009
	c69.302-45.929,145.521-79.965,225.457-100.96c82.633-21.703,169.24-29.464,256.271-22.015
	c-1.418-48.289-6.915-95.05-16.421-139.604c-2.544-11.926-9.088-21.264-19.428-27.725
	C2694.328,1219.04,2683.068,1217.245,2671.231,1220.178"/>
<defs>
	
		<filter id="Adobe_OpacityMaskFilter_00000147928774233830187940000009218467501456912523_" filterUnits="userSpaceOnUse" x="2260.843" y="1440.65" width="739.189" height="951.212">
		<feColorMatrix  type="matrix" values="1 0 0 0 0  0 1 0 0 0  0 0 1 0 0  0 0 0 1 0"/>
	</filter>
</defs>
<mask maskUnits="userSpaceOnUse" x="2260.843" y="1440.65" width="739.189" height="951.212" id="SVGID_00000092445874870719701530000003602381632703859597_">
	<g style="filter:url(#Adobe_OpacityMaskFilter_00000147928774233830187940000009218467501456912523_);">
		
			<linearGradient id="SVGID_00000104686897864051821580000017378657053892908223_" gradientUnits="userSpaceOnUse" x1="1059.2135" y1="3414.4045" x2="2593.9004" y2="1873.8833" gradientTransform="matrix(1 0 0 1 788.1792 -712.1279)">
			<stop  offset="0" style="stop-color:#FFFFFF"/>
			<stop  offset="1" style="stop-color:#000000"/>
		</linearGradient>
		
			<rect x="2260.843" y="1440.648" style="fill:url(#SVGID_00000104686897864051821580000017378657053892908223_);" width="739.189" height="951.214"/>
	</g>
</mask>
<path style="mask:url(#SVGID_00000092445874870719701530000003602381632703859597_);fill-rule:evenodd;clip-rule:evenodd;fill:#328B09;" d="
	M2860.081,1445.782c-11.226,401.362-241.174,764.403-599.238,946.08c149.693-47.975,300.483-138.926,431.019-269.463
	c190.952-190.952,297.216-425.228,308.105-636.021c0.631-12.176-3.275-22.892-11.588-31.807
	c-8.315-8.925-18.724-13.572-30.918-13.801C2925.596,1440.166,2893.059,1441.853,2860.081,1445.782"/>
<path d="M2829.034,2956.111v-56.852h88.299v-21.385h-88.299v-54.089h99.118v-21.887h-124.277v176.101h127.799v-21.888H2829.034z
	 M2688.911,2903.031h-42.766v-79.246h42.766c32.201,0,49.055,14.343,49.055,39.5
	C2737.966,2888.439,2721.112,2903.031,2688.911,2903.031z M2766.143,2977.998l-41.764-59.118
	c24.657-8.806,38.744-28.428,38.744-55.596c0-38.242-27.673-61.387-73.458-61.387h-68.677v176.101h25.157v-53.583h43.519
	c3.775,0,7.548-0.253,11.07-0.506l37.987,54.089H2766.143z M2477.595,2956.111v-56.852h88.299v-21.385h-88.299v-54.089h99.117
	v-21.887h-124.277v176.101h127.8v-21.888H2477.595z M2374.449,2801.898v75.723h-101.128v-75.723h-25.159v176.101h25.159v-78.49
	h101.128v78.49h25.157v-176.101H2374.449z M2102.503,2801.898v131.32l-105.657-131.32h-20.631v176.101h25.159v-131.319
	l105.657,131.319h20.628v-176.101H2102.503z M1819.489,2913.846l37.988-86.286l37.984,86.286H1819.489z M1923.638,2977.998h26.414
	l-80-176.101h-24.904l-79.746,176.101h25.911l19.369-44.025h93.585L1923.638,2977.998z M1719.868,2946.302
	c-12.577,8.048-26.413,11.318-41.256,11.318c-40.503,0-69.937-28.93-69.937-67.67c0-39.246,29.434-67.675,70.188-67.675
	c19.872,0,36.477,6.291,51.067,20.38l15.599-15.599c-16.099-17.861-39.748-27.17-67.672-27.17c-54.59,0-94.339,37.987-94.339,90.063
	c0,52.073,39.749,90.06,93.836,90.06c24.654,0,49.055-7.548,66.666-22.39v-68.677h-24.151V2946.302z M1466.036,2957.621
	c-39.496,0-68.678-28.679-68.678-67.67c0-38.996,29.182-67.675,68.678-67.675c38.993,0,68.175,28.679,68.175,67.675
	C1534.212,2928.941,1505.03,2957.621,1466.036,2957.621z M1466.036,2980.011c53.584,0,93.333-38.237,93.333-90.06
	c0-51.823-39.749-90.063-93.333-90.063c-54.089,0-93.837,38.49-93.837,90.063
	C1372.199,2941.519,1411.948,2980.011,1466.036,2980.011z M1240.378,2977.998h120.5v-21.888h-95.342v-154.213h-25.157V2977.998z
	 M1135.473,2980.011c46.544,0,68.176-23.144,68.176-50.02c0-64.611-106.663-37.652-106.663-80.753
	c0-15.388,12.83-27.969,42.766-27.969c15.599,0,32.957,4.53,48.301,14.343l8.301-20.128c-14.593-10.063-35.974-15.596-56.602-15.596
	c-46.288,0-67.419,23.144-67.419,50.354c0,65.448,106.663,38.324,106.663,81.258c0,15.346-13.08,27.127-43.522,27.127
	c-22.638,0-45.029-8.511-58.109-20.336l-9.308,19.582C1082.143,2970.953,1108.556,2980.011,1135.473,2980.011z"/>
<path d="M3147.451,2757.502l-0.619-216.379h-50.385l-74.188,124.882l-76.042-124.882h-50.387v216.379h56.569v-111.588l55.332,90.261
	h27.203l55.639-93.357l0.618,114.684H3147.451z M2752.711,2761.83c63.986,0,101.701-36.166,101.701-100.772v-119.935h-60.278
	v118.078c0,37.096-15.457,51.934-40.805,51.934c-25.655,0-41.112-14.838-41.112-51.934v-118.078h-61.204v119.935
	C2651.011,2725.664,2688.724,2761.83,2752.711,2761.83z M2528.912,2761.83c64.295,0,95.825-32.15,95.825-69.756
	c0-79.751-122.718-54.972-122.718-88.151c0-10.869,9.274-19.523,34.932-19.523c18.854,0,39.255,5.564,59.966,16.742l18.856-45.49
	c-21.33-12.365-50.387-18.859-78.515-18.859c-64.297,0-95.827,31.531-95.827,70.222c0,80.422,123.027,55.436,123.027,89.646
	c0,10.507-9.889,17.566-35.236,17.566c-25.039,0-52.24-8.604-71.407-21.226l-20.092,45.029
	C2458.124,2752.248,2493.366,2761.83,2528.912,2761.83z M2320.259,2652.713h-34.001v-63.369h34.001
	c25.349,0,38.022,11.749,38.022,31.838C2358.281,2640.965,2345.607,2652.713,2320.259,2652.713z M2323.967,2541.124h-98.914v216.379
	h61.204v-56.57h37.71c59.043,0,96.136-30.602,96.136-79.75C2420.104,2571.726,2383.011,2541.124,2323.967,2541.124z
	 M2120.263,2757.502h61.204v-216.379h-61.204V2757.502z M1987.035,2757.502l-0.62-216.379h-50.384l-74.188,124.882l-76.043-124.882
	h-50.387v216.379h56.57v-111.588l55.332,90.261h27.203l55.638-93.357l0.619,114.684H1987.035z M1588.28,2710.208v-39.567h96.131
	v-45.75h-96.131v-36.473h109.115v-47.295h-169.703v216.379h173.721v-47.295H1588.28z M1432.175,2621.182
	c0,19.782-12.672,31.531-38.02,31.531h-34.001v-63.369h34.001C1419.503,2589.344,1432.175,2601.093,1432.175,2621.182z
	 M1432.793,2757.502h65.534l-46.676-68.005c26.893-12.981,42.348-36.475,42.348-68.315c0-49.457-37.094-80.059-96.136-80.059
	h-98.914v216.379h61.204v-57.495h33.384L1432.793,2757.502z M1146.557,2711.136c-32.768,0-58.423-24.422-58.423-61.823
	c0-37.403,25.655-61.823,58.423-61.823c32.766,0,58.419,24.42,58.419,61.823C1204.976,2686.714,1179.323,2711.136,1146.557,2711.136
	z M1146.557,2761.83c69.239,0,120.242-47.604,120.242-112.517c0-64.914-51.003-112.521-120.242-112.521
	c-69.243,0-120.246,47.607-120.246,112.521C1026.311,2714.226,1077.314,2761.83,1146.557,2761.83z M852.278,2757.502h164.449v-48.53
	H913.482v-167.849h-61.204V2757.502z"/>
</svg>
